<svg xmlns="http://www.w3.org/2000/svg" xmlns:xlink="http://www.w3.org/1999/xlink" viewBox="0 0 939.58 603.02"><defs><style>.cls-1,.cls-10,.cls-11,.cls-18,.cls-24,.cls-25,.cls-28,.cls-32,.cls-35,.cls-39,.cls-41,.cls-43,.cls-46,.cls-47,.cls-49,.cls-51,.cls-52,.cls-54,.cls-55,.cls-57,.cls-59,.cls-60,.cls-61,.cls-62,.cls-66,.cls-67,.cls-7,.cls-70,.cls-71,.cls-74,.cls-75,.cls-76,.cls-77,.cls-8,.cls-80{fill:none;}.cls-2{isolation:isolate;}.cls-3{fill:#f1f9fe;}.cls-4{fill:#89bae4;}.cls-5{fill:#c3e2f7;}.cls-6{fill:#9fceef;}.cls-7,.cls-8{stroke:#a0d3f2;}.cls-10,.cls-13,.cls-16,.cls-18,.cls-28,.cls-39,.cls-55,.cls-57,.cls-59,.cls-60,.cls-7,.cls-71,.cls-8,.cls-9{stroke-linejoin:round;}.cls-8{stroke-dasharray:3.5 3.5;}.cls-16,.cls-19,.cls-23,.cls-9{fill:#fff;}.cls-10,.cls-9{stroke:#bbe6fb;}.cls-11{stroke:#8abee7;}.cls-11,.cls-23,.cls-24,.cls-25,.cls-32,.cls-35,.cls-41,.cls-43,.cls-46,.cls-47,.cls-49,.cls-51,.cls-52,.cls-54,.cls-61,.cls-62,.cls-66,.cls-67,.cls-70,.cls-74,.cls-75,.cls-76,.cls-77,.cls-80{stroke-miterlimit:10;}.cls-12{fill:#8abee7;}.cls-13{fill:#699ed4;}.cls-13,.cls-16,.cls-71{stroke:#5287c6;}.cls-14{fill:#7dbae6;}.cls-15{fill:#8ecbef;}.cls-17{clip-path:url(#clip-path);}.cls-18,.cls-28{stroke:#dff3fd;}.cls-18{stroke-width:5px;}.cls-20,.cls-21{fill:#dff3fd;}.cls-21{opacity:0.55;mix-blend-mode:screen;}.cls-22{clip-path:url(#clip-path-2);}.cls-23,.cls-24,.cls-25{stroke:#cdecfc;}.cls-25,.cls-51,.cls-55{stroke-linecap:round;}.cls-25,.cls-28{stroke-width:3px;}.cls-26{fill:#cdecfc;}.cls-27{fill:#e7f6fd;}.cls-29{fill:#fbaa39;}.cls-30{fill:#f2e0cc;}.cls-31{clip-path:url(#clip-path-3);}.cls-32{stroke:#f4c7a5;}.cls-32,.cls-35{stroke-width:1.5px;}.cls-33{fill:#af4a25;}.cls-34{clip-path:url(#clip-path-4);}.cls-35{stroke:#afd9f4;}.cls-36{fill:#f15e5f;}.cls-37{fill:#f287b7;}.cls-38{fill:#22262e;}.cls-39{stroke:#253d84;}.cls-39,.cls-41,.cls-43,.cls-46,.cls-47,.cls-49,.cls-52,.cls-57,.cls-59,.cls-60,.cls-61,.cls-74,.cls-75,.cls-76,.cls-77,.cls-80{stroke-width:0.75px;}.cls-40{fill:#5a2a22;}.cls-41{stroke:#a45a46;}.cls-42{fill:#0f123b;}.cls-43{stroke:#e2aa7a;}.cls-44{fill:#3a6fb6;}.cls-45{fill:#2a3276;}.cls-46{stroke:#5f80c0;}.cls-47{stroke:#e26326;}.cls-48{fill:#e26326;}.cls-49{stroke:#1f4394;}.cls-50{fill:#23326b;}.cls-51{stroke:#3a6fb6;}.cls-51,.cls-54,.cls-55,.cls-62,.cls-66,.cls-67,.cls-70{stroke-width:0.5px;}.cls-52,.cls-54{stroke:#ca3c8d;}.cls-53{fill:#f5855e;}.cls-55{stroke:#23326b;}.cls-56{fill:#bd403a;}.cls-57{stroke:#922723;}.cls-58{fill:#d34f43;}.cls-59{stroke:#7c211b;}.cls-60{stroke:#4d5461;}.cls-61{stroke:#f8d9d7;}.cls-62{stroke:#0f123b;}.cls-63{fill:#212237;}.cls-64{fill:#5a7abd;}.cls-65{fill:#272762;}.cls-66{stroke:#5a7abd;}.cls-67{stroke:#3658a8;}.cls-68{fill:#454b9f;}.cls-69{fill:#2d489e;}.cls-70{stroke:#5a86c5;}.cls-72{fill:#eb6faa;}.cls-73{fill:#1e2253;}.cls-74{stroke:#783127;}.cls-75{stroke:#233d7a;}.cls-76{stroke:#c54427;}.cls-77{stroke:#4157a6;}.cls-78{fill:#a5a5a5;}.cls-79{fill:#bdbdbd;}.cls-80{stroke:#878a8e;}</style><clipPath id="clip-path"><rect class="cls-1" x="245.14" y="161.45" width="213.33" height="323.92"/></clipPath><clipPath id="clip-path-2"><rect class="cls-1" x="488.4" y="150.08" width="213.33" height="335.29" transform="translate(1190.13 635.44) rotate(180)"/></clipPath><clipPath id="clip-path-3"><path class="cls-1" d="M137.4,464.11a19.81,19.81,0,0,1,0-39.62H371.9v39.62Z"/></clipPath><clipPath id="clip-path-4"><path class="cls-1" d="M126.83,561.78a37.6,37.6,0,0,1,0-75.2h290v75.2Z"/></clipPath></defs><g class="cls-2"><g id="Layer_2" data-name="Layer 2"><g id="Layer_1-2" data-name="Layer 1"><path class="cls-3" d="M733.36,69.09c-2.25-1.16-4.76-1.7-6.89-3.1-6-4-7.11-12.42-9.58-19.08-2.78-7.49-10.29-11.64-18.11-10.84-5.54.56-9.84,3.86-13.5,7.82-2.37,2.56-3.08,11.11-10.37,11.24-1.43,0-2.54-1.21-3.73-2.07-3.51-2.54-9-.67-10.52,3.6-.77,2.11-.71,4.59-1.91,6.44-3.1,4.72-10.75,1-14.82,4.72-1.46,1.35-2.16,3.45-3.43,5-1.85,2.28-4.68,3.21-7.37,4-7.43,2.15-17.08,2.48-17.08,4.92,0,3.44,38.26,1.38,60.73,1.38h37.1c5.76,0,24.23,2.73,23.94-8C737.75,72.39,735.61,70.25,733.36,69.09Z"/><path class="cls-3" d="M180.07,124c-1.25-2.16-1.67-5-2.58-7.41-2-5.4-6.7-8.83-11.22-8.21-2.1.29-4.13,1.36-6.23,1.35-9.68,0-10.21-16.28-17.54-21.32C136,84,128,87.59,123.94,94.79c-2.32,4.12-3.43,9.19-5.18,13.78s-5,5.16-8.8,6.07c-3.63.86-8,5.39-6.85,10.86a9,9,0,0,0,3.21,5.41c6.13,4.31,17.08,3.86,25.14,3.62,7.57-.23,69.3.48,69.3-2.07S183.82,130.47,180.07,124Z"/><path class="cls-3" d="M550.47,33.26l-.23-.29c-2.29-3-3.19-6.33-7-6.54-4.49-.26-11.8,1.2-13.65-5.63-1.12-4.1,0-8.88-2.4-12.48a7.79,7.79,0,0,0-7-3.42c-4.46.26-8.09,4.15-12.45,4.9-5.13.88-7.56-5.23-11.68-7.79-7.29-4.51-13.54-.52-17.28,3.13-4.13,4-6.79,10.21-7.56,16.67-.93,7.86,4.83,15.48,11,18.92a20,20,0,0,0,9.75,2.13c3.91,0,7.83-.13,11.72-.24,7.32-.21,67.09.44,67.09-1.9,0-1.48-8.69-2.89-9.92-3.33C557.3,36.13,553.25,36.61,550.47,33.26Z"/><polygon class="cls-4" points="260.5 68.38 260.84 76.62 228.53 42.86 260.5 68.38"/><polygon class="cls-5" points="274.68 58.59 244.38 79.31 228.53 42.86 274.68 58.59"/><polygon class="cls-6" points="263.09 66.52 228.53 42.86 258.14 69.89 260.84 76.62 263.09 66.52"/><line class="cls-7" x1="853.7" y1="162.67" x2="853.7" y2="169.16"/><line class="cls-7" x1="856.95" y1="165.92" x2="850.46" y2="165.92"/><line class="cls-7" x1="907.14" y1="443.35" x2="907.14" y2="449.85"/><line class="cls-7" x1="910.39" y1="446.6" x2="903.9" y2="446.6"/><line class="cls-7" x1="842.69" y1="220.19" x2="842.69" y2="226.69"/><line class="cls-7" x1="845.94" y1="223.44" x2="839.44" y2="223.44"/><line class="cls-7" x1="204.66" y1="104.08" x2="204.66" y2="110.58"/><line class="cls-7" x1="207.91" y1="107.33" x2="201.42" y2="107.33"/><line class="cls-7" x1="29.67" y1="245.02" x2="29.67" y2="251.52"/><line class="cls-7" x1="32.92" y1="248.27" x2="26.42" y2="248.27"/><line class="cls-7" x1="47.5" y1="500.24" x2="47.5" y2="506.74"/><line class="cls-7" x1="50.74" y1="503.49" x2="44.25" y2="503.49"/><line class="cls-7" x1="471.11" y1="65.73" x2="471.11" y2="72.22"/><line class="cls-7" x1="474.36" y1="68.98" x2="467.86" y2="68.98"/><path class="cls-7" d="M498.88,128.22a3.1,3.1,0,1,1-3.1-3.1A3.1,3.1,0,0,1,498.88,128.22Z"/><path class="cls-7" d="M900.88,237a3.1,3.1,0,1,1-3.1-3.1A3.1,3.1,0,0,1,900.88,237Z"/><path class="cls-7" d="M630.09,42.86a3.1,3.1,0,1,1-3.1-3.1A3.1,3.1,0,0,1,630.09,42.86Z"/><path class="cls-7" d="M342,104.08a3.1,3.1,0,1,1-3.1-3.1A3.1,3.1,0,0,1,342,104.08Z"/><circle class="cls-7" cx="779.62" cy="128.22" r="3.1"/><circle class="cls-7" cx="3.6" cy="319.8" r="3.1"/><circle class="cls-7" cx="117.59" cy="199.1" r="3.1"/><path class="cls-7" d="M179.24,86.62a3.1,3.1,0,1,1-3.1-3.1A3.1,3.1,0,0,1,179.24,86.62Z"/><line class="cls-7" x1="72.68" y1="165.91" x2="107.7" y2="165.91"/><line class="cls-7" x1="118.37" y1="165.91" x2="134" y2="165.91"/><line class="cls-7" x1="684.69" y1="107.18" x2="719.71" y2="107.18"/><line class="cls-7" x1="730.38" y1="107.18" x2="746.01" y2="107.18"/><line class="cls-7" x1="407.49" y1="52.61" x2="383.7" y2="52.61"/><line class="cls-7" x1="375.84" y1="52.61" x2="363.02" y2="52.61"/><line class="cls-7" x1="532.87" y1="77.32" x2="558.47" y2="77.32"/><line class="cls-7" x1="880.46" y1="348.65" x2="906.06" y2="348.65"/><line class="cls-7" x1="898.7" y1="339.36" x2="915.53" y2="339.36"/><path class="cls-8" d="M719.35,452c-32.76-2.78-65-10.79-98-11.14-15.13-.17-33.75.2-47.7,6.91-13.31,6.4-24,17.88-38.12,23.39a68,68,0,0,1-20.16,4c-55.28,3.73-102-28.28-153-43.46-20.32-6.06-42.93,1.53-63.27,5.55C271.88,442.7,245,451.7,217,450.49c-60.91-2.62-135-33.83-159.51-93.86-10.59-25.91-13.15-57.32,1.86-82.1,17.21-28.42,53.63-36.81,85.58-45.94,35.79-10.22,69.92-31.89,95.5-59.43,18.57-20,27-46.38,42.71-68.31,17.66-24.72,50.45-41.66,80.82-31,32.36,11.35,55.59,33.92,91.66,36.42,26.29,1.83,51-5.75,76.88-6.67,38.36-1.36,76.92,16.62,100.54,46.87,11.25,14.41,19.32,31.4,32.56,44,24.06,22.92,60.47,27,93.59,24.37s66.28-20.44,99.16-15.54c37.8,5.63,75.92,35.15,78.71,76.41,3.54,52.47-22,102.3-62,135.24C832,446.38,773.71,456.65,719.35,452Z"/><path class="cls-9" d="M227,368.56c-23.73-27.1-70.4-85.72-48.17-213.94,75.78,68.2,84.11,112.73,87.34,198.17"/><path class="cls-10" d="M178.82,154.62S192,258.19,246,357.26"/><path class="cls-10" d="M178.82,154.62s-8.15,110.56,58.84,210.92"/><path class="cls-10" d="M251.16,353.38C247.91,329,205.57,209.1,178.82,154.62"/><path class="cls-10" d="M259,347.78c-11.09-61.7-19.89-122.68-80.17-193.16"/><path class="cls-9" d="M209.69,390c-26.94-15.16-81.45-49.29-100.06-159.42,80.81,33.57,100.26,67.23,127.27,135.48"/><path class="cls-10" d="M109.63,230.58s40.23,80.07,112.2,144.86"/><path class="cls-10" d="M109.63,230.58s25,91.82,107.84,153.93"/><path class="cls-10" d="M224.92,370.81C215.34,352,146.84,267,109.63,230.58"/><path class="cls-10" d="M229.66,364.05c-26.59-46.78-51.12-93.63-120-133.47"/><path class="cls-9" d="M189.73,474.47c-36-2.13-110.46-10.08-186.13-116,101.77-6,139.32,19.29,202.41,77"/><path class="cls-10" d="M3.6,358.52S86.59,421.87,195,453"/><path class="cls-10" d="M3.6,358.52s73,83.45,191.47,106.24"/><path class="cls-10" d="M195.89,446.61C176.27,431.81,61.17,377.74,3.6,358.52"/><path class="cls-10" d="M197.41,437.1c-51.71-35.43-101.3-72-193.81-78.58"/><path class="cls-11" d="M181.75,431.55c-17-80-85.16-121.67-85.16-121.67"/><path class="cls-12" d="M98.63,311.23s-13.44-24.76-23.56-17.34S98.63,311.23,98.63,311.23Z"/><path class="cls-12" d="M110.42,319.9s6.41-29.11-6.81-30.19S110.42,319.9,110.42,319.9Z"/><path class="cls-12" d="M121.65,329.41s17.27-24.3,5.52-30.46S121.65,329.41,121.65,329.41Z"/><path class="cls-12" d="M136.34,343.9s16.25-22.87,5.19-28.67S136.34,343.9,136.34,343.9Z"/><path class="cls-12" d="M137.21,343.68s-26.22-10-29.06,2.18S137.21,343.68,137.21,343.68Z"/><path class="cls-12" d="M148.08,357.79s16.26-22.86,5.19-28.67S148.08,357.79,148.08,357.79Z"/><path class="cls-12" d="M149,357.58s-26.22-10-29.06,2.18S149,357.58,149,357.58Z"/><path class="cls-12" d="M157.85,374.15s19.08-20.57,8.86-27.75S157.85,374.15,157.85,374.15Z"/><path class="cls-12" d="M158.74,374.05s-24.71-13.3-29.1-1.6S158.74,374.05,158.74,374.05Z"/><path class="cls-12" d="M167.14,388.76S186.23,368.19,176,361,167.14,388.76,167.14,388.76Z"/><path class="cls-12" d="M168,388.66s-24.71-13.3-29.1-1.6S168,388.66,168,388.66Z"/><path class="cls-12" d="M174.69,408.59s19.08-20.57,8.86-27.76S174.69,408.59,174.69,408.59Z"/><path class="cls-12" d="M175.58,408.49s-24.71-13.3-29.1-1.6S175.58,408.49,175.58,408.49Z"/><path class="cls-12" d="M121.22,329.38S91.46,327.74,92.52,341,121.22,329.38,121.22,329.38Z"/><path class="cls-12" d="M109.93,318.84s-28.09-10-30.81,3S109.93,318.84,109.93,318.84Z"/><path class="cls-11" d="M140.89,492.34C93.82,443.62,27.64,444.25,27.64,444.25"/><path class="cls-12" d="M29.67,444.29S9.36,432.8,5.5,442.45,29.67,444.29,29.67,444.29Z"/><path class="cls-12" d="M41.76,445.21s-8.27-23.27-18-18.22S41.76,445.21,41.76,445.21Z"/><path class="cls-12" d="M53.83,447s1.47-24.65-9.5-23.83S53.83,447,53.83,447Z"/><path class="cls-12" d="M70.5,450.69s1.39-23.2-8.93-22.42S70.5,450.69,70.5,450.69Z"/><path class="cls-12" d="M71,450.16s-22.81,4.49-19.46,14.29S71,450.16,71,450.16Z"/><path class="cls-12" d="M84.86,455.3s1.38-23.2-8.94-22.42S84.86,455.3,84.86,455.3Z"/><path class="cls-12" d="M85.37,454.77s-22.81,4.49-19.46,14.29S85.37,454.77,85.37,454.77Z"/><path class="cls-12" d="M98.9,462.51s4.38-22.83-6-23.39S98.9,462.51,98.9,462.51Z"/><path class="cls-12" d="M99.48,462.05s-23.2,1.5-21.14,11.65S99.48,462.05,99.48,462.05Z"/><path class="cls-12" d="M111.85,468.7s4.38-22.83-6-23.4S111.85,468.7,111.85,468.7Z"/><path class="cls-12" d="M112.43,468.23s-23.2,1.51-21.15,11.65S112.43,468.23,112.43,468.23Z"/><path class="cls-12" d="M125.85,479.32s4.38-22.83-6-23.4S125.85,479.32,125.85,479.32Z"/><path class="cls-12" d="M126.43,478.85s-23.19,1.51-21.14,11.65S126.43,478.85,126.43,478.85Z"/><path class="cls-12" d="M53.51,447.13s-21.63,11.92-15.08,20.75S53.51,447.13,53.51,447.13Z"/><path class="cls-12" d="M41,444.68S16.84,450,20.63,460.33,41,444.68,41,444.68Z"/><path class="cls-9" d="M713.9,335.47c28.73-21.73,86.29-69.69,90.48-199.75-88,51.44-105.19,93.36-125.64,176.38"/><path class="cls-10" d="M804.38,135.72s-33.87,98.75-106.77,184.85"/><path class="cls-10" d="M804.38,135.72S790,245.63,704.06,330.36"/><path class="cls-10" d="M693.31,315.71c8.11-23.2,73.84-132.06,111.07-180"/><path class="cls-10" d="M686.77,308.65c23.35-58.18,44.32-116.11,117.61-172.93"/><path class="cls-9" d="M748.65,406.64c34.9-8.92,106.54-30.87,160.72-149.19-101.07,13.39-133.12,45.4-184.1,114"/><path class="cls-10" d="M909.37,257.45s-69.45,78-170,129.15"/><path class="cls-10" d="M909.37,257.45s-55.8,95.79-167.81,140.67"/><path class="cls-10" d="M737.31,380.46c16.45-18.26,119.18-93.21,172.06-123"/><path class="cls-10" d="M734,371.41c44-44.61,85.79-89.92,175.36-114"/><path class="cls-9" d="M734.17,461c35.7,4.81,110.35,11.29,204.91-78.11-98.72-25.45-140.43-7.78-213.42,36.77"/><path class="cls-10" d="M939.08,382.9s-93.59,46.26-206,56.06"/><path class="cls-10" d="M939.08,382.9s-87.62,67.91-208.29,67.56"/><path class="cls-10" d="M733.47,432.49c22.09-10.76,145.42-41.77,205.61-49.59"/><path class="cls-10" d="M733.8,422.87C791.34,398,847,371.63,939.08,382.9"/><path class="cls-9" d="M704.24,495.14c23.46,16.19,73.44,47.43,161.83,14.76C804.3,456.1,770.9,454.41,709,461.52"/><path class="cls-10" d="M866.07,509.9S789.43,511,709.16,478.44"/><path class="cls-10" d="M866.07,509.9S788,529.12,704.61,486.13"/><path class="cls-10" d="M711.07,473.78c18.06-.14,111.34,20.59,155,36.12"/><path class="cls-10" d="M713.77,466.77c46.2,2,91.5,2.19,152.3,43.13"/><path class="cls-11" d="M746.82,353.31c17-80,85.17-121.66,85.17-121.66"/><path class="cls-12" d="M829.94,233s13.44-24.76,23.56-17.35S829.94,233,829.94,233Z"/><path class="cls-12" d="M818.15,241.67s-6.41-29.11,6.82-30.2S818.15,241.67,818.15,241.67Z"/><path class="cls-12" d="M806.92,251.17s-17.27-24.29-5.52-30.46S806.92,251.17,806.92,251.17Z"/><path class="cls-12" d="M792.24,265.66S776,242.79,787,237,792.24,265.66,792.24,265.66Z"/><path class="cls-12" d="M791.37,265.44s26.22-10,29,2.18S791.37,265.44,791.37,265.44Z"/><path class="cls-12" d="M780.49,279.56s-16.25-22.87-5.19-28.67S780.49,279.56,780.49,279.56Z"/><path class="cls-12" d="M779.62,279.34s26.22-10,29.06,2.18S779.62,279.34,779.62,279.34Z"/><path class="cls-12" d="M770.73,295.92s-19.08-20.57-8.86-27.76S770.73,295.92,770.73,295.92Z"/><path class="cls-12" d="M769.84,295.82s24.7-13.3,29.09-1.6S769.84,295.82,769.84,295.82Z"/><path class="cls-12" d="M761.43,310.53s-19.08-20.57-8.86-27.76S761.43,310.53,761.43,310.53Z"/><path class="cls-12" d="M760.54,310.43s24.7-13.3,29.09-1.6S760.54,310.43,760.54,310.43Z"/><path class="cls-12" d="M753.89,330.35S734.8,309.78,745,302.6,753.89,330.35,753.89,330.35Z"/><path class="cls-12" d="M753,330.25s24.71-13.29,29.1-1.6S753,330.25,753,330.25Z"/><path class="cls-12" d="M807.36,251.14s29.76-1.63,28.7,11.6S807.36,251.14,807.36,251.14Z"/><path class="cls-12" d="M818.64,240.61s28.09-10,30.81,3S818.64,240.61,818.64,240.61Z"/><path class="cls-11" d="M715.35,503.49C765.48,461.41,829,468.67,829,468.67"/><path class="cls-12" d="M827.05,468.52s20.68-9,23.41.65S827.05,468.52,827.05,468.52Z"/><path class="cls-12" d="M815.34,468.18s10.3-21.53,19.18-15.69S815.34,468.18,815.34,468.18Z"/><path class="cls-12" d="M803.58,468.64s1.06-23.83,11.52-21.93S803.58,468.64,803.58,468.64Z"/><path class="cls-12" d="M787.18,470.55s1-22.43,10.84-20.64S787.18,470.55,787.18,470.55Z"/><path class="cls-12" d="M786.73,470S808.2,476.6,804,485.68,786.73,470,786.73,470Z"/><path class="cls-12" d="M772.92,473.54s1-22.44,10.85-20.65S772.92,473.54,772.92,473.54Z"/><path class="cls-12" d="M772.48,473s21.46,6.61,17.26,15.68S772.48,473,772.48,473Z"/><path class="cls-12" d="M758.7,479.05s-1.91-22.38,8.08-21.88S758.7,479.05,758.7,479.05Z"/><path class="cls-12" d="M758.19,478.55s22.14,3.78,19.14,13.32S758.19,478.55,758.19,478.55Z"/><path class="cls-12" d="M745.64,483.69s-1.91-22.38,8.08-21.88S745.64,483.69,745.64,483.69Z"/><path class="cls-12" d="M745.12,483.19s22.14,3.78,19.15,13.32S745.12,483.19,745.12,483.19Z"/><path class="cls-12" d="M731.11,492.48s-1.91-22.37,8.08-21.87S731.11,492.48,731.11,492.48Z"/><path class="cls-12" d="M730.6,492s22.14,3.78,19.14,13.32S730.6,492,730.6,492Z"/><path class="cls-12" d="M803.86,468.84s19.59,13.63,12.4,21.45S803.86,468.84,803.86,468.84Z"/><path class="cls-12" d="M816.18,467.75s22.63,7.55,17.94,17.08S816.18,467.75,816.18,467.75Z"/><path class="cls-13" d="M220.36,147H726.51a5.32,5.32,0,0,1,5.32,5.32v367.1a5.31,5.31,0,0,1-5.31,5.31H220.36a5.31,5.31,0,0,1-5.31-5.31V152.27A5.32,5.32,0,0,1,220.36,147Z"/><rect class="cls-14" x="224.15" y="156.2" width="249.29" height="358.66"/><rect class="cls-14" x="473.43" y="156.2" width="249.29" height="358.66" transform="translate(1196.15 671.06) rotate(180)"/><path class="cls-15" d="M230.2,153.35V511.26c161.94-13.07,243.26,2.8,243.26,2.8V156.15S413.4,121.17,230.2,153.35Z"/><path class="cls-16" d="M230.17,153.35V511.26c183.19-32.19,243.26,2.8,243.26,2.8V156.15S413.36,121.17,230.17,153.35Z"/><path class="cls-15" d="M716.69,153.35V511.26c-161.93-13.07-243.26,2.8-243.26,2.8V156.15S533.5,121.17,716.69,153.35Z"/><path class="cls-16" d="M716.69,153.35V511.26c-183.19-32.19-243.26,2.8-243.26,2.8V156.15S533.5,121.17,716.69,153.35Z"/><g class="cls-17"><path class="cls-18" d="M463.53,187s-55.2-32.14-223.52-2.57"/><path class="cls-18" d="M463.53,211.26s-55.2-32.14-223.52-2.57"/><path class="cls-18" d="M463.53,235.52S408.33,203.38,240,233"/><path class="cls-18" d="M463.53,259.78s-55.2-32.14-223.52-2.57"/><path class="cls-18" d="M463.53,284S408.33,251.9,240,281.47"/><path class="cls-18" d="M463.53,308.3s-55.2-32.14-223.52-2.57"/><path class="cls-18" d="M463.53,332.56S408.33,300.42,240,330"/><path class="cls-18" d="M463.53,356.82s-55.2-32.14-223.52-2.57"/><path class="cls-18" d="M463.53,381.08s-55.2-32.14-223.52-2.57"/><path class="cls-18" d="M463.53,405.34S408.33,373.2,240,402.77"/><path class="cls-18" d="M463.53,429.6S408.33,397.46,240,427"/><path class="cls-18" d="M463.53,453.86s-55.2-32.14-223.52-2.57"/><path class="cls-18" d="M463.53,478.12S408.33,446,240,475.55"/><rect class="cls-19" x="352.1" y="161.45" width="112.97" height="101.71"/><path class="cls-20" d="M361.69,167.87v80.54c74.55-.81,101.84,15,101.84,15V182.9S436.24,167.06,361.69,167.87Z"/><path class="cls-21" d="M373.87,240.87s13.82-25.25,24.95-36.65C414.64,216.37,437,248.13,437,248.13S416.16,239.57,373.87,240.87Z"/><path class="cls-21" d="M441.83,249a87.25,87.25,0,0,1,14.37,5.07s-23.77-34.38-36.33-45.61l-5.06,5S430.91,231.81,441.83,249Z"/><path class="cls-21" d="M448.33,192.4c-1,3.38-5.2,5.14-9.48,3.93s-7-4.93-6-8.31,5.21-5.14,9.48-3.93S449.29,189,448.33,192.4Z"/></g><g class="cls-22"><path class="cls-18" d="M483.34,405.34s55.19-32.14,223.51-2.57"/><path class="cls-18" d="M483.34,429.6s55.19-32.14,223.51-2.57"/><path class="cls-18" d="M483.34,453.86s55.19-32.14,223.51-2.57"/><path class="cls-18" d="M483.34,478.12s55.19-32.14,223.51-2.57"/><path class="cls-23" d="M550.66,264.16a50.2,50.2,0,1,1,90.76,29.55h0c-7.16,10.8-25.78,19.71-25.78,34.51v8.34a3,3,0,0,1-3,3H589.08a3,3,0,0,1-3-3v-8.34c0-14.8-18.62-23.71-25.78-34.51h0A50,50,0,0,1,550.66,264.16Z"/><path class="cls-24" d="M607.44,337.28c-.29-6.91-1.86-50.95,5.38-65.09,3.54-6.92,10.19-10,14.51-7.38,2.87,1.72,4.2,6.35,3.57,10.57-1.25,8.31-8.89,18.56-29.6,18.56S573,283.69,571.7,275.38c-.63-4.22.7-8.85,3.57-10.57,4.32-2.58,11,.46,14.51,7.38,7.24,14.14,5.67,58.18,5.38,65.09"/><path class="cls-25" d="M611.6,222.16a41.86,41.86,0,0,1,31.53,40.56"/><path class="cls-26" d="M600.33,220.81a2.88,2.88,0,1,0,2.88-2.88A2.88,2.88,0,0,0,600.33,220.81Z"/><path class="cls-26" d="M617.27,330.34H585.33v15.22a13,13,0,0,0,2,7h0A13.72,13.72,0,0,0,599,359h4.68a13.73,13.73,0,0,0,11.59-6.38h0a13,13,0,0,0,2-7Z"/><path class="cls-27" d="M617.28,341.57l-.28,0-32-4.43a2,2,0,0,1,.55-3.95l31.95,4.43a2,2,0,0,1-.27,4Z"/><path class="cls-27" d="M617.28,348.53H617l-32-4.43a2,2,0,0,1,.55-3.95l31.95,4.43a2,2,0,0,1-.27,4Z"/><path class="cls-27" d="M616,355.39l-.28,0-30.28-4.2a2,2,0,0,1,.55-3.95l30.28,4.2a2,2,0,0,1-.27,4Z"/><path class="cls-24" d="M579.8,239.71V160.42s5.15-.17,14.07-.11"/><path class="cls-28" d="M600.14,170c20.62.5,44.37,2.14,71.57,5.45"/><path class="cls-28" d="M600.14,178.76c20.62.5,44.37,2.14,71.57,5.45"/><path class="cls-28" d="M600.14,161.23c20.62.49,44.37,2.13,71.57,5.45"/><path class="cls-28" d="M600.14,188.44q12.18.3,25.83,1.15"/><path class="cls-26" d="M596.17,160.31a2.3,2.3,0,1,1-2.3-2.3A2.3,2.3,0,0,1,596.17,160.31Z"/><path class="cls-24" d="M497.8,230.31l0,51.52c11.91-2.9,28.6-5.76,51-7.16"/><path class="cls-28" d="M497.57,201.3c12.42-3,30.08-6,54-7.37"/><path class="cls-28" d="M497.57,211.75c12.42-3,30.08-6,54-7.38"/><path class="cls-28" d="M497.57,222.2a276.48,276.48,0,0,1,41.11-6.46"/><path class="cls-26" d="M500.1,230.31a2.3,2.3,0,1,1-2.3-2.3A2.3,2.3,0,0,1,500.1,230.31Z"/><polyline class="cls-24" points="623.4 348.17 623.4 373.87 645.21 373.87"/><path class="cls-28" d="M649.86,346.12s25.74,1.38,55.81,6.25"/><path class="cls-28" d="M649.86,354.89s25.74,1.38,55.81,6.25"/><path class="cls-28" d="M649.86,363.66s25.74,1.38,55.81,6.25"/><path class="cls-28" d="M649.86,372.43s13.1.7,31.52,2.87"/><path class="cls-26" d="M647.51,373.86a2.3,2.3,0,1,1-2.3-2.3A2.3,2.3,0,0,1,647.51,373.86Z"/></g><path class="cls-19" d="M137.4,473.44a29.14,29.14,0,0,1,0-58.28h234v58.28Z"/><path class="cls-29" d="M370.9,415.66v57.28H137.4a28.64,28.64,0,0,1,0-57.28H370.9m1-1H137.4a29.64,29.64,0,0,0,0,59.28H371.9V414.66Z"/><path class="cls-30" d="M137.4,464.61a20.31,20.31,0,0,1,0-40.62h235v40.62Z"/><path class="cls-29" d="M371.9,424.49v39.62H137.4a19.81,19.81,0,0,1,0-39.62H371.9m1-1H137.4a20.81,20.81,0,0,0,0,41.62H372.9V423.49Z"/><g class="cls-31"><line class="cls-32" x1="104.01" y1="441.87" x2="371.9" y2="441.87"/><line class="cls-32" x1="106.35" y1="454.35" x2="374.25" y2="454.35"/><polygon class="cls-33" points="309.34 454.13 301.87 448.7 294.41 454.13 294.41 434.47 309.34 434.47 309.34 454.13"/><line class="cls-32" x1="118.96" y1="434.47" x2="371.9" y2="434.47"/></g><path class="cls-19" d="M126.83,573.93a49.75,49.75,0,0,1,0-99.49H420.6a1.57,1.57,0,0,1,1.58,1.57v8.49a1.58,1.58,0,0,1-1.58,1.58h-293c-20.83,0-38.28,16.57-38.88,36.95a38.12,38.12,0,0,0,38.08,39.25H420.6a1.58,1.58,0,0,1,1.58,1.58v8.49a1.58,1.58,0,0,1-1.58,1.58Z"/><path class="cls-12" d="M420.6,474.94a1.08,1.08,0,0,1,1.08,1.07v8.49a1.08,1.08,0,0,1-1.08,1.08h-293c-21.1,0-38.77,16.79-39.38,37.43a38.63,38.63,0,0,0,38.58,39.77H420.6a1.09,1.09,0,0,1,1.08,1.08v8.49a1.09,1.09,0,0,1-1.08,1.08H126.83a49.25,49.25,0,0,1,0-98.49H420.6m0-1H126.83a50.24,50.24,0,0,0-50.24,50.24h0a50.24,50.24,0,0,0,50.24,50.25H420.6a2.08,2.08,0,0,0,2.08-2.08v-8.49a2.08,2.08,0,0,0-2.08-2.08H126.83A37.63,37.63,0,0,1,89.25,523c.6-20.45,17.92-36.46,38.38-36.46h293a2.08,2.08,0,0,0,2.08-2.08V476a2.08,2.08,0,0,0-2.08-2.07Z"/><path class="cls-5" d="M126.83,561.78a37.6,37.6,0,0,1,0-75.2h290v75.2Z"/><g class="cls-34"><line class="cls-35" x1="82.08" y1="510.25" x2="434.62" y2="510.25"/><line class="cls-35" x1="82.08" y1="530.62" x2="434.62" y2="530.62"/><line class="cls-35" x1="82.08" y1="548.9" x2="434.62" y2="548.9"/><line class="cls-35" x1="82.08" y1="494.83" x2="434.62" y2="494.83"/></g><polygon class="cls-36" points="142.15 568.77 129.87 555.42 117.59 568.77 117.59 510.25 142.15 510.25 142.15 568.77"/><path class="cls-37" d="M561,553.2l-.81,35.1.28,10.57-23.83-.21a1.82,1.82,0,0,1-1.82-1.84h0a1.81,1.81,0,0,1,1.18-1.7l.26-8.22-.83-36.47"/><path class="cls-38" d="M533,598.22c.43-1.33,3.33-11.32,3.33-11.32,10.44,4.23,24,1,24,1l2.41,14.27a.86.86,0,0,1-.86.86l-28.53-.24C532.37,602.77,533,598.26,533,598.22Z"/><line class="cls-39" x1="562.45" y1="599.93" x2="532.79" y2="599.69"/><path class="cls-39" d="M533.82,595.41a30.12,30.12,0,0,1,14.82-3.48,22.75,22.75,0,0,1,12.92,4.48"/><path class="cls-40" d="M527.72,428.61l5.22,153.68h30.24l-2.5-124.53s3.39-14.29-1.92-27.06"/><line class="cls-41" x1="530.74" y1="428.61" x2="535.96" y2="582.29"/><path class="cls-37" d="M524.05,553.2l-2.32,35.1.28,10.57-41.44-.21a1.83,1.83,0,0,1-1.83-1.84h0a1.83,1.83,0,0,1,1.19-1.7l17.87-8.22.69-36.47"/><path class="cls-38" d="M476.93,598.22c.42-1.33,1.2-2.82,2-3.16l18.95-8.16c10.45,4.23,24,1,24,1l2.41,14.27a.85.85,0,0,1-.86.86l-46.14-.24C476.32,602.77,476.92,598.26,476.93,598.22Z"/><path class="cls-39" d="M493.77,587.71a22.64,22.64,0,0,1,2.67,4.49"/><path class="cls-39" d="M491.38,589.14a19.56,19.56,0,0,1,2.2,3.82"/><path class="cls-39" d="M489.36,590.18a27.91,27.91,0,0,1,2.06,3.5"/><line class="cls-39" x1="524.01" y1="599.93" x2="476.73" y2="599.69"/><path class="cls-39" d="M522.7,593s-11.11.22-12.07,6.91"/><path class="cls-39" d="M482.8,593.39s3.06,4.35,3.67,6.35"/><path class="cls-40" d="M499.53,425.24c-4.1,44.05-5,157-5,157H526.9c-.85-15.95,6.66-125.23,6.66-125.23s8.54-11.07,8.11-31.82"/><path class="cls-41" d="M504.06,425.24c-4.1,44.05-5,157-5,157"/><path class="cls-41" d="M515.2,440.67s11.11,1.07,14.18,1"/><path class="cls-41" d="M561.46,441.67s-7.67.57-12.18.52"/><path class="cls-41" d="M530.46,509.42l2.85-48.1a17.35,17.35,0,0,1,2.08-7.31c2.08-3.78,5.23-10.61,5.65-17.85"/><path class="cls-37" d="M520.29,311.87c-2.43,5.88-6.93,19.07-1.56,22s10.45.76,15.38-3.54,6-10.76,2-16.34C532.42,308.85,522.71,306,520.29,311.87Z"/><polyline class="cls-37" points="522.91 330.18 520.7 344.51 538.61 342.73 538 324.6"/><path class="cls-42" d="M530.69,305.37c-4.16-2.25-7.4-.29-10.07,1.81a5.05,5.05,0,0,0-1.78,2.27,2.44,2.44,0,0,0,.65,2.61c.52.45,1.31.75,1.49,1.37a1.93,1.93,0,0,1,0,.72,23,23,0,0,0,0,5.31.91.91,0,0,0,.3.67c.51.37,1.19-.24,1.48-.76s.91-1.16,1.46-.83a.93.93,0,0,1,.36.78c.47,4.43.54,8.94,1.93,13.22a1.54,1.54,0,0,0,.45.79,2.06,2.06,0,0,0,1.14.32,53,53,0,0,0,5.35.17c1.94,0,4.06-.26,5.39-1.49,1.51-1.4,1.81-3.56,2.5-5.38,1.68-4.41,3.39-8.41,2.6-13.21-.57-3.47-2.47-6.9-6.28-7.74a41.15,41.15,0,0,0-7-.63"/><path class="cls-30" d="M502.48,362.25c-.44,1.63-3.13,44.37-4,68.45,16.75,2.88,45.7,3.65,61.82,0a752.24,752.24,0,0,0-4.27-83s-10-8.21-15.36-9.22c-6.09,3.41-17.73,4.29-17.73,4.29Z"/><path class="cls-37" d="M497.16,363.79s-10.87,16.48-15,17.43c-11.87,2.69-41.63,4.23-41.63,4.23l.23,15.6s32.74,6.52,54.15-3.16c12.49-5.66,23.84-33,23.84-33"/><path class="cls-37" d="M547.71,331.61s7.39-14.21,10.87-24.86a234.28,234.28,0,0,0,7.12-29.84l15.91,2.22s-1.92,21.71-5.54,35.59a404.22,404.22,0,0,1-13,39.51"/><path class="cls-37" d="M564.13,286.67c1-6.8,4.87-32.69,6-33S571,259.47,572,259s2-9.9,3.31-9.92c1.71,0,0,9.59,0,9.59s1.06-3.14,2.55-2.74c1.06.29.76,4.19.76,4.19s.46-2.32,1.55-2,.8,2.75.8,2.75,1-1.72,1.84-1c1.36,1.16-1.1,17.05-2.61,31.88"/><path class="cls-30" d="M522.91,342.73s-15-.36-20.67,8.77-13.36,23-13.36,23l20.92,10.34,10-17.76"/><path class="cls-30" d="M529.37,342.07a23.33,23.33,0,0,0,12.18-4.24c3.12-2.23,4.12-5.47,8-10.64,9.32,0,19.67,12.34,19.67,12.34s-9.83,27.51-12.4,37.94"/><line class="cls-43" x1="509.8" y1="384.86" x2="518.13" y2="370.1"/><line class="cls-43" x1="557.91" y1="373.37" x2="556.89" y2="356.41"/><path class="cls-37" d="M457.59,384.24c-9.07.62-26.79.17-27.32,1.27s5.59,1.85,5,2.68-10.1.3-10.34,1.54c-.32,1.68,9.44,1.7,9.44,1.7s-10.53.9-10.39,2.44c.1,1.09,11.24,1.07,11.24,1.07s-9.61.44-9.48,1.57,10.56,1.79,10.56,1.79-8.45.08-7.91,1c.91,1.54,11.15,2,24.74,3.4"/><path class="cls-37" d="M819.75,329.08c-13.92-3.9-17.25-3.54-33.21-10.46-11.79-5.12-34.31-22.52-34.31-22.52l11-9.42a125.53,125.53,0,0,0,29.52,14.78c11.59,4.1,23.24,6.85,23.24,6.85"/><path class="cls-37" d="M775.85,295.06c-5.87-4-23.74-15.84-24.6-15.34s1.62,2.67.83,2.95-7-4.44-7.68-3.71c-1,1,5.58,5.48,5.58,5.48s-7.45-4.56-8.06-3.46c-.43.79,5.1,4.53,7,6.22-2.33-1.57-6.4-3.66-6.83-2.84s3.27,3.44,6,5.6c-1.84-1.19-5.28-3.18-5.72-2.43s5.59,5.59,13.73,11.52"/><path class="cls-44" d="M842.26,320.16s1.85-1.94-5.29-5.76c-5.25-2.82-16-5.92-27.56-8.62L807,327.91l18.05,6.6"/><path class="cls-37" d="M834.71,522.07l2.2,34.86.28,10.49L796,567.21a1.81,1.81,0,0,1-1.81-1.82h0a1.82,1.82,0,0,1,1.17-1.7l17.75-8.16-3.82-36.2"/><path class="cls-45" d="M792.43,566.77c.42-1.32,1.19-2.8,2-3.13l18.82-8.11c10.37,4.21,23.8,1,23.8,1l2.39,14.17a.85.85,0,0,1-.85.85l-45.82-.24C791.82,571.3,792.42,566.81,792.43,566.77Z"/><path class="cls-46" d="M809.15,556.34a22.82,22.82,0,0,1,2.65,4.46"/><path class="cls-46" d="M806.78,557.76a19.52,19.52,0,0,1,2.18,3.79"/><path class="cls-46" d="M804.77,558.79a27.61,27.61,0,0,1,2.05,3.48"/><line class="cls-46" x1="839.17" y1="568.48" x2="792.24" y2="568.24"/><path class="cls-46" d="M837.87,561.55s-11,.22-12,6.86"/><path class="cls-46" d="M798.26,562s3,4.32,3.64,6.31"/><path class="cls-29" d="M814.27,385.64l-.43,4.66a307.21,307.21,0,0,0-9.44,73.63c.05,31.89,4.36,84.56,4.36,84.56l31-.69s-4.22-70.28-3.62-87.34S841,412.94,841,412.94s12.82-11.47,7.3-31"/><path class="cls-47" d="M834.05,547.8s-2.81-70.28-2.21-87.34,3.48-47.52,3.48-47.52"/><polygon class="cls-33" points="807.35 551.63 841.24 551.63 840.78 543.38 806.9 543.38 807.35 551.63"/><path class="cls-37" d="M884.87,488.45l29,20.58,7.51,6.57-21.65,33.13a1.83,1.83,0,0,1-2.53.49h0a1.82,1.82,0,0,1-.75-1.92L899.47,528l-31-20"/><path class="cls-45" d="M897.31,551.49c-.87-1.08-1.67-2.55-1.51-3.38L899.5,528c9.26-6.29,14-19.25,14-19.25L925,516.26a.84.84,0,0,1,.23,1.17l-24,36.31C900.73,554.5,897.33,551.52,897.31,551.49Z"/><path class="cls-46" d="M897.92,531.8a21.92,21.92,0,0,1,5.18.26"/><path class="cls-46" d="M897.78,534.55a19.82,19.82,0,0,1,4.36.29"/><path class="cls-46" d="M897.53,536.79a28.44,28.44,0,0,1,4,.23"/><line class="cls-46" x1="923.14" y1="515.04" x2="898.42" y2="552.46"/><path class="cls-46" d="M917.77,511.52s-5.51,8.57-.51,13.05"/><path class="cls-46" d="M896.56,544s5.28-.13,7.27.48"/><path class="cls-29" d="M825.7,387.27s-3.2,58.58,4.94,84.39c8.77,27.8,60.82,54.42,60.82,54.42l15.68-23s-38.24-28-42.81-38.29c-3.19-7.21-2.73-39.23-1.74-43.08,2.34-9.13,3.52-22.22-.4-31.68l-1.73-4.76"/><path class="cls-47" d="M903.71,506.9s-36.6-25.39-41.86-38.34c-3.89-9.55-4.58-41.06-3.59-44.92,2.34-9.12,3.59-24.19-.23-32.7"/><path class="cls-47" d="M825.55,391.55s-3.07,52.38,4.09,76.09c1.78,5.91,4.25,10.66,6.87,16.18"/><polygon class="cls-33" points="893.07 528.14 910.46 504.03 904 498.86 886.13 523.65 893.07 528.14"/><path class="cls-47" d="M817.54,391.42s1.7,5.09-5.68,6.36"/><path class="cls-47" d="M813.84,390.3s17.92,7.1,48.35-.31"/><path class="cls-47" d="M822,391.42s-1.27,11.1.36,12.12a30.6,30.6,0,0,0,3.06,1.67"/><path class="cls-47" d="M847.37,393.19s2.73,6.88,12.7,6.79"/><path class="cls-47" d="M822.48,392l-2.5-.28a.67.67,0,0,1-.56-.72c.05-1,.14-2.85.19-3.84a.66.66,0,0,1,.63-.66H822"/><path class="cls-48" d="M822.48,388.76a.76.76,0,0,1-.76.76.77.77,0,0,1-.77-.76.78.78,0,0,1,.77-.77A.77.77,0,0,1,822.48,388.76Z"/><line class="cls-47" x1="833.54" y1="392.45" x2="833.54" y2="385.83"/><line class="cls-47" x1="851.12" y1="392.53" x2="850.1" y2="387"/><path class="cls-44" d="M823.19,319.75C817,330.1,812.6,334.6,811.86,338c-1.78,8.32,3.83,15.16,3.83,15.16l-1.42,32.44c12.77,3.27,30.89,4.12,46.5.33,1.05-11.7,8.47-38.16,8.48-45.73,0-19.1-11.4-22.86-17.52-25.25L837,314.4Z"/><path class="cls-49" d="M854.57,316s-2.52,4.05-10.71,3-9.05-4.39-9.05-4.39"/><path class="cls-37" d="M864.33,348.17s-14.5,16.39-29.71,26.05c-12.53,8-50.66,11-50.66,11l-4.69-16s24.69-5,40-10.79c13.28-5,24.35-22,24.35-22"/><path class="cls-37" d="M797.71,365c-15.3,4.32-35.85,6.45-36.23,7.54s3.43,1.11,3,1.94-9.42,1.39-9.51,2.58c-.11,1.61,9,.55,9,.55s-10,1.65-9.64,3.08c.21,1,7.86.1,10.82.12-3.21.38-8.35,1.63-8.11,2.68s5.47.52,9.48.34c-2.49.35-7,1.22-6.82,2.2s19.59.32,33.65-1.79"/><polyline class="cls-44" points="867.27 346.84 855.01 361.74 835.6 346.09 846.79 331.94"/><line class="cls-49" x1="835.6" y1="346.09" x2="845.16" y2="334.01"/><line class="cls-49" x1="855.01" y1="361.74" x2="864.43" y2="351.06"/><path class="cls-49" d="M817.32,330.68s3.67-5.91,3.67-7.16"/><path class="cls-50" d="M860.86,285.43c2,1.52,4.45,2.29,6.75,1.34s4.32-2.94,6.69-4a11.23,11.23,0,0,1,9.48.33c2.38,1.27,4.06,3.53,6.28,5.07,3.45,2.4,7.55,3,10.92.32s8.13-3.65,11.55-.38l-4.37,14.83s-3.25-2.1-6.24,0a19.64,19.64,0,0,1-5,2.62c-6,2-11.5-1.83-15.08-6.44-1.15-1.48-2.23-3.2-4-3.84-2.41-.88-5-.36-7.48-.71-3.82-.52-6.24-3.31-8.45-6.19"/><path class="cls-51" d="M862.6,286.87c-.09-.59-.19-1.18-.29-1.77a7.55,7.55,0,0,1-.12-2.37,2.48,2.48,0,0,1,1.28-1.89.78.78,0,0,1,.68,0,.85.85,0,0,1,.35.77,5.41,5.41,0,0,1-.23,1.43q-.59,2.19-1.35,4.32"/><path class="cls-51" d="M863.16,286.89a7.56,7.56,0,0,1,3.45-3.28,2.28,2.28,0,0,1,1.74-.22.61.61,0,0,1,.35.28.65.65,0,0,1,0,.39,3.12,3.12,0,0,1-1.5,2,8.38,8.38,0,0,1-3.6,1.34s4.25,2.05,3.71,6.74"/><path class="cls-37" d="M839.84,303.55,837,314.4s1.73,2.35,7.67,2.48c5.65.12,7.09-1.89,7.09-1.89l2-16.19"/><path class="cls-37" d="M840.68,285.85c-5.72,8.79-8.56,16.73-2.44,20,6.46,3.45,14.25,1.31,16.44-7C857,290.13,844.44,281.07,840.68,285.85Z"/><path class="cls-50" d="M864.42,295.2c1-5.49-2.33-12.81-8.18-14.11-8.77-4.38-13.16-1.66-17.59,2.29-.5.44-1,1.13-.68,1.71a1.44,1.44,0,0,0,.62.52,8.54,8.54,0,0,0,4.35,1,3.48,3.48,0,0,0,2.37,2.81,8.87,8.87,0,0,0,3.84.33,2.28,2.28,0,0,0,.65,2.49,13.51,13.51,0,0,1,1.9,2c.79,1.31.47,3,.32,4.49a17.36,17.36,0,0,0,.38,5.79,1.49,1.49,0,0,0,.64,1.06,1.45,1.45,0,0,0,.85,0A13.14,13.14,0,0,0,864.42,295.2Z"/><path class="cls-52" d="M839,306.89a12.22,12.22,0,0,0,9.34-.61"/><polygon class="cls-53" points="853.98 297.88 853.98 297.87 853.98 297.88 853.98 297.88"/><path class="cls-54" d="M842.26,293.49s-3.17,2.72-3.24,3.72,2.12,1.76,2.12,1.76"/><path class="cls-19" d="M838.36,299.41l5.83,2.64a4.06,4.06,0,0,1-5.18,1.12C836.8,302,838.36,299.41,838.36,299.41Z"/><path class="cls-50" d="M840.17,291.66c-.1.14-.21.27-.3.41l-.25.36a.47.47,0,0,0,0,.31.39.39,0,0,0,.19.23.35.35,0,0,0,.3,0,.43.43,0,0,0,.24-.18c.08-.12.14-.24.21-.37s.13-.25.19-.38a.34.34,0,0,0,0-.26.3.3,0,0,0-.13-.18.3.3,0,0,0-.2-.08.43.43,0,0,0-.25.1Z"/><path class="cls-55" d="M842.47,290.84a1.64,1.64,0,0,0-2.2-.94"/><path class="cls-50" d="M846.57,295.39c-.09.12-.16.23-.24.36l-.22.36a.47.47,0,0,0,0,.31.39.39,0,0,0,.19.23.35.35,0,0,0,.3,0,.43.43,0,0,0,.24-.18c.07-.12.13-.26.19-.39l.21-.47a.35.35,0,0,0,0-.26.36.36,0,0,0-.16-.14.36.36,0,0,0-.23,0l-.08,0a.34.34,0,0,0-.12.12Z"/><path class="cls-55" d="M846.94,292.92s1.64-.08,2.67,2.14"/><path class="cls-37" d="M850.57,298.91a1.81,1.81,0,0,1,1.68-.89c1.7,0,1.94,2.25,1.22,3.66a4.35,4.35,0,0,1-2,2c-1.2.64-2.39.44-2.56-1"/><path class="cls-37" d="M355.72,547.78l2.56,38.74L358,598.18l44.29-.23a2,2,0,0,0,2-2h0A2,2,0,0,0,403,594L384.68,585l-.75-40.24"/><path class="cls-56" d="M407.71,597.46c-.46-1.47-2.76-3.11-3.63-3.48l-19.47-9c-11.53,4.67-26.45,1.1-26.45,1.1l-2.66,15.75a1,1,0,0,0,.95.94l49.47-.27C408.87,602.49,407.73,597.51,407.71,597.46Z"/><line class="cls-57" x1="387.7" y1="585.87" x2="385.25" y2="590.82"/><path class="cls-57" d="M390.33,587.44a22.13,22.13,0,0,0-2.42,4.21"/><path class="cls-57" d="M392.56,588.59a30,30,0,0,0-2.28,3.87"/><line class="cls-57" x1="355.77" y1="599.36" x2="407.93" y2="599.09"/><path class="cls-57" d="M399.8,592.13s-3.38,4.8-4.05,7"/><path class="cls-57" d="M357.22,591.65s12.25.25,13.3,7.64"/><path class="cls-38" d="M342.31,425.24a67.41,67.41,0,0,0,0,29.06l11.28,125h35.3s-4.27-108.58-6.79-154.08"/><path class="cls-37" d="M319,548l-.77,38.74-.32,11.67,45.74-.24a2,2,0,0,0,2-2h0a2,2,0,0,0-1.31-1.88l-19.72-9.07L347.16,545"/><path class="cls-58" d="M367.61,597.72c-.47-1.47-1.33-3.11-2.19-3.48l-20.91-9c-11.53,4.67-26.45,1.1-26.45,1.1l-2.67,15.75a1,1,0,0,0,.95.94l50.92-.27C368.28,602.75,367.62,597.77,367.61,597.72Z"/><path class="cls-59" d="M349,586.13a25,25,0,0,0-2.95,5"/><path class="cls-59" d="M351.66,587.7a22.69,22.69,0,0,0-2.42,4.21"/><path class="cls-59" d="M353.89,588.85a31.11,31.11,0,0,0-2.27,3.87"/><line class="cls-59" x1="315.66" y1="599.62" x2="367.82" y2="599.35"/><path class="cls-59" d="M317.11,591.91s12.26.25,13.31,7.64"/><path class="cls-59" d="M361.13,592.39s-3.38,4.8-4,7"/><path class="cls-38" d="M319.24,425.24a67.72,67.72,0,0,0-.35,27.46,11.61,11.61,0,0,1,.23,3.22L316,579.32h35.3S360,464.6,359,425.24"/><path class="cls-60" d="M323.56,425.24a67.51,67.51,0,0,0-.35,27.46,11.24,11.24,0,0,1,.22,3.22l-3.15,123.4"/><path class="cls-60" d="M352.75,567.45C356,516.46,359.8,457,359,425.24"/><path class="cls-60" d="M322.08,436.16c8.74,0,16.89-1.61,17.82-10.92"/><path class="cls-60" d="M358.66,443.82s2.68.35,3.33-1.09c1.32-2.92,1.32-11.42,1.32-17.49"/><path class="cls-60" d="M372.76,424.47c.16.47.69,8.35,9.84,8.28"/><line class="cls-60" x1="316.12" y1="573" x2="351.66" y2="573"/><line class="cls-60" x1="353.15" y1="573" x2="388.63" y2="573"/><path class="cls-58" d="M344.6,337.47c-27.15,19.76-25.36,60.6-25.36,87.77,9.81,3.27,55.68,2.83,63.93,0-.57-13.21-2.82-56.48-6.54-69.83-2.15-5-15.41-17-15.41-17Z"/><rect class="cls-19" x="331.31" y="386.91" width="36.46" height="48.25" transform="translate(240.11 -117.32) rotate(28.68)"/><line class="cls-61" x1="351.28" y1="388.44" x2="367.35" y2="397.23"/><line class="cls-61" x1="343.68" y1="390.85" x2="369.7" y2="405.08"/><line class="cls-61" x1="341.06" y1="395.65" x2="367.08" y2="409.88"/><line class="cls-61" x1="338.43" y1="400.45" x2="364.45" y2="414.68"/><line class="cls-61" x1="335.8" y1="405.25" x2="361.83" y2="419.49"/><line class="cls-61" x1="333.18" y1="410.05" x2="359.2" y2="424.29"/><line class="cls-61" x1="330.55" y1="414.85" x2="356.58" y2="429.09"/><line class="cls-61" x1="327.93" y1="419.66" x2="353.95" y2="433.89"/><path class="cls-37" d="M333.86,419.74l-17.27-8.36c3.18,1.87,31.91,15.92,34.29,17.12a34.76,34.76,0,0,0,7.92,2.88,2.8,2.8,0,0,0,1.62.05,1.05,1.05,0,0,0,.69-1.29,1.76,1.76,0,0,0,1.59-2.92,4.81,4.81,0,0,0,1.92-1,1.59,1.59,0,0,0,.26-2c-.09-.11-.21-.23-.19-.37a.42.42,0,0,1,.17-.23c.46-.39,1.05-.62,1.53-1A1.46,1.46,0,0,0,367,421a1.82,1.82,0,0,0-.64-.74l-4.74-3.85c-.26-.21-.54-.59-.3-.83a.67.67,0,0,1,.52-.11,17.3,17.3,0,0,0,3.45,0c.32,0,.71-.12.78-.44a.66.66,0,0,0-.09-.45,3.45,3.45,0,0,0-1.46-1.2c-6.33-3.51-19.16-10.35-19.16-10.35"/><path class="cls-37" d="M309.7,359.78S294.55,389.51,299,398.07c5.11,9.89,41.75,24.58,41.75,24.58l8.82-17.23s-26-14.2-26-19.19c0-4.35,7.75-17.56,7.75-17.56"/><path class="cls-37" d="M386.05,350.49s13,15.38,16.69,16.17,23.67-13.58,23.67-13.58L435.83,367s-26.62,23.59-36.16,22.66c-9.32-.92-29.08-21.26-29.08-21.26"/><path class="cls-58" d="M344.6,337.47s-17-4.06-26.85,8.13a81.72,81.72,0,0,0-13.67,25.87l22.84,10.58,10.46-20.69"/><path class="cls-58" d="M361.22,338.44s9.11.85,15.06,3.69,23.39,21.81,23.39,21.81l-17.94,17.18-13.19-13.81"/><path class="cls-37" d="M419.46,358c5.58-4,26.93-19.17,28-18.55s-3.6,4.66-2.64,5,8.55-5.39,9.44-4.49c1.2,1.21-6.88,6.67-6.88,6.67s9.24-5.13,10-3.77c.53,1-8.73,7.17-8.73,7.17s8.23-5,8.75-4-7.76,7.38-7.76,7.38,7-4.66,7.11-3.61c.1,1.78-18.37,14.79-28.86,23.54"/><path class="cls-52" d="M443.37,345.44c-1.57,3.09-.72,5.85-3.65,8.79"/><line class="cls-59" x1="326.92" y1="382.05" x2="335.7" y2="364.68"/><line class="cls-59" x1="380.09" y1="379.4" x2="377.24" y2="357.93"/><path class="cls-37" d="M346.91,325.74l-2.31,11.73c1.74,2,10.22,6.42,16.62,1l.19-8.15Z"/><path class="cls-37" d="M363.87,312.35s5.28,14.64.58,19.4c-2.45,2.47-9.66,2.9-12.73.45-2.28-1.82-5.65-13.08-4.36-15.05C352.29,309.62,363.87,312.35,363.87,312.35Z"/><path class="cls-54" d="M360.73,319.25s2.83,3.46,2.72,4.52-2.57,1.46-2.57,1.46"/><path class="cls-19" d="M363.91,326.2l-6.62,1.69a4.33,4.33,0,0,0,5.24,2.15C365.08,329.21,363.91,326.2,363.91,326.2Z"/><path class="cls-50" d="M363.18,318a7.61,7.61,0,0,0,.33,1,.36.36,0,0,0,.24.18.39.39,0,0,0,.26,0,.42.42,0,0,0,.18-.17.35.35,0,0,0,0-.3c-.06-.17-.14-.34-.21-.5l-.21-.42a.35.35,0,0,0-.43-.14.36.36,0,0,0-.2.41Z"/><path class="cls-55" d="M362.09,316.43a1.76,1.76,0,0,1,2.49-.57"/><path class="cls-50" d="M355.36,320.67c0,.14.07.29.11.44s.08.29.13.43a.48.48,0,0,0,.18.24.42.42,0,0,0,.31,0,.38.38,0,0,0,.23-.18.41.41,0,0,0,0-.31,3.16,3.16,0,0,0-.16-.43,4.4,4.4,0,0,0-.21-.5.34.34,0,0,0-.21-.16.42.42,0,0,0-.22,0,.35.35,0,0,0-.2.41Z"/><path class="cls-55" d="M356.11,317.78s-1.71-.38-3.21,1.75"/><path class="cls-42" d="M340.56,323a15.5,15.5,0,0,1-.68-12.36,12.7,12.7,0,0,1,4.72-5.93c2.36-1.55,6.17-2.31,8.93-2.55a17.31,17.31,0,0,1,9.21,1.82c2.82,1.42,5,4.42,4.74,7.57a3,3,0,0,1-1,2.13,2.81,2.81,0,0,1-1.55.48,7.91,7.91,0,0,1-5.29-2.1,3,3,0,0,1-1.77,2.18c-1.12.3-2.17-.57-3-1.38a6.36,6.36,0,0,1-2.41,3,3.32,3.32,0,0,1-3.27-.18c.08,0,.08,2.89.1,3.2,0,1.19-.83,2.23-1,3.41a46.89,46.89,0,0,1-2,7.94,16.31,16.31,0,0,0-3.16-3.58A14.6,14.6,0,0,1,340.56,323Z"/><path class="cls-52" d="M360.84,334a20.2,20.2,0,0,1-9.66-2.34"/><path class="cls-62" d="M359.24,320.57a4,4,0,1,1-4-4A4,4,0,0,1,359.24,320.57Z"/><path class="cls-62" d="M367,316.2c.71,2,0,4.12-1.53,4.67s-3.4-.66-4.12-2.69,0-4.12,1.54-4.67S366.29,314.17,367,316.2Z"/><line class="cls-62" x1="361.22" y1="317.94" x2="358.81" y2="318.78"/><line class="cls-62" x1="351.18" y1="321.01" x2="346.36" y2="323.54"/><path class="cls-37" d="M348.39,323.51c-1.4-2.27-2.76-2.09-3.62-1-1.14,1.41.43,4.79,1.27,5.44,1.7,1.3,3.19,1.36,3.5-.11"/><path class="cls-37" d="M249.51,255l-4.75,9a19.24,19.24,0,0,1-7.72-2.21c-4.45-2.2-5.75-5.22-5.75-5.22L239.34,246"/><path class="cls-37" d="M259.63,238c4.42,2.61-2.88,19.12-6.88,20.16s-11.92-6.75-14.28-13.36,5.24-10.23,9.71-11.57S259.63,238,259.63,238Z"/><path class="cls-50" d="M256.27,245.92l-.23.39c-.07.14-.14.27-.2.41a.25.25,0,0,0-.05.15.26.26,0,0,0,0,.15.39.39,0,0,0,.18.24.39.39,0,0,0,.3,0,.4.4,0,0,0,.24-.18c.08-.17.15-.34.22-.51s.11-.28.16-.43a.34.34,0,0,0,0-.26.31.31,0,0,0-.16-.14.34.34,0,0,0-.43.14Z"/><path class="cls-55" d="M258.8,244.35s-1-1.45-3.53-.94"/><path class="cls-19" d="M252.46,252.39l2.81,2s-1.1,2.12-2.1,1.3S252.46,252.39,252.46,252.39Z"/><path class="cls-63" d="M263.6,241.58a42.37,42.37,0,0,1-5.74-2.64c-2,.42-4.14,2.33-4.2,4.49,0,.49-.06,1.15-.54,1.22s-.61-.28-.7-.6a7.9,7.9,0,0,0-.21-1,1.43,1.43,0,0,0-1.74-.65,2.45,2.45,0,0,0-1.37,1.43c-.67,1.6-1.27,3.55.26,4.89a2.67,2.67,0,0,1,.67.67c.34.6-.06,1.34-.45,1.9a7.59,7.59,0,0,1-6.65,3.72c-2.53,0-6.72-3.33-7-5,0-.15-2.45-10.36,2-16.85,2.41-3.48,6.65-6,11.07-5.65a12.81,12.81,0,0,1,6.45,2.88C262.87,231.77,264.45,239.37,263.6,241.58Z"/><path class="cls-37" d="M259.34,247.6s.66,5-.32,5.49-3-.86-3-.86"/><rect class="cls-64" x="126.35" y="398.63" width="31.14" height="1.39" transform="translate(541.01 256.76) rotate(89.91)"/><path class="cls-65" d="M154.09,388.16l-.64-2.7s-3.52-1-6-1.41a28.72,28.72,0,0,0-4.89-.3l0,31.14s2.7-.82,7-8.26a16.32,16.32,0,0,1,3.67-4.43Z"/><line class="cls-66" x1="150.97" y1="404.7" x2="149.03" y2="403.23"/><line class="cls-66" x1="149.76" y1="406.51" x2="147.82" y2="405.28"/><line class="cls-66" x1="148.72" y1="408.2" x2="146.7" y2="407.08"/><path class="cls-37" d="M169,386.59l-15.52-1.13s-1.59,1.45-1.59,6.74a38,38,0,0,0,1.48,10l18,2.35"/><path class="cls-45" d="M189.63,323.75c-4.93,13.19,3.12,32.34,3.12,32.34l5.08,32.29-41.58-2.92.9,25S200.32,415,210.76,415s14.48-2.33,17.54-8.45c4.57-9.12-2-59.52-2-60.35l-7.17-32.37"/><line class="cls-67" x1="161.58" y1="386.05" x2="162.88" y2="411.02"/><rect class="cls-64" x="254.59" y="413.26" width="31.14" height="1.39"/><path class="cls-65" d="M259,401.75l-2.69.64s-1,3.52-1.43,6a29.34,29.34,0,0,0-.31,4.89l31.14,0s-.81-2.7-8.24-7a16.28,16.28,0,0,1-4.42-3.68Z"/><line class="cls-66" x1="275.56" y1="404.92" x2="274.09" y2="406.85"/><line class="cls-66" x1="277.36" y1="406.13" x2="276.13" y2="408.07"/><line class="cls-66" x1="279.06" y1="407.17" x2="277.93" y2="409.19"/><path class="cls-37" d="M259.07,390.57l-2.74,11.82s1.44,1.6,6.73,1.6a37.9,37.9,0,0,0,10-1.45l4.29-16"/><path class="cls-45" d="M203.59,330.88s-4.56,23.35,18.63,28.37c10.37,2.24,39.86,3,39.86,3l-6.59,36.07h25.27s5.45-27.18,7.09-45.36c1.1-12.09-5.54-18.71-13.88-18.71s-33.18-2.65-33.18-2.65l-4.18-5.25"/><path class="cls-67" d="M227.42,360.08s-19.52.06-24.19-21.81"/><path class="cls-67" d="M213.53,336.21a53.19,53.19,0,0,0,12.16.56"/><path class="cls-67" d="M188,333.11a38.35,38.35,0,0,0,8.58,1.46"/><line class="cls-67" x1="256.18" y1="393.61" x2="281.73" y2="393.61"/><polygon class="cls-68" points="301.78 284.33 303.01 286.42 311.96 279.19 310.44 277.34 301.78 284.33"/><path class="cls-38" d="M311,279.62a8.72,8.72,0,0,1-.4-12.34h0a8.73,8.73,0,1,1,.4,12.34Zm1-11.07h0a6.87,6.87,0,0,0,.31,9.72,6.88,6.88,0,1,0-.31-9.72Z"/><path class="cls-38" d="M296,290.54h0a1.73,1.73,0,0,0,2.47.21l10.95-8.85-2.17-2.73L296.3,288A2,2,0,0,0,296,290.54Z"/><path class="cls-37" d="M283.23,288.78l9.66-2.76s5.65-4.4,7.74-4.49c2.37-.11,2.86.67,2.86.67l-.68.56a1.65,1.65,0,0,0-.13,2.43l.09.08a1.72,1.72,0,0,0,2.31.14l1.5-1.21c0,.06,2.41.13.61,2.26,1.06,0,1.9,1.3.19,2.68.7.29.75,1.49-.46,2.72.83.81-.21,2.13-1.18,2.57-1.82.82-19.83,5.89-19.83,5.89"/><path class="cls-69" d="M245.06,263.21c12.76,17.66,5.9,23.38-3.27,68.42a272,272,0,0,1-54.09-5.3,345.25,345.25,0,0,1,20.82-49.94C215,263.84,225.69,257.6,231.76,256"/><path class="cls-69" d="M225.69,283.06s16.59,27.72,26,29.09c14.88,2.18,42-7.38,42-7.38l-2.87-18.46s-29.8,4.07-31.11,3.33c-4.24-2.41-14.61-26.43-14.61-26.43"/><path class="cls-70" d="M246.69,309.68a87.18,87.18,0,0,1-19.27-24.51"/><line class="cls-71" x1="659.21" y1="246.86" x2="691.99" y2="556.09"/><line class="cls-71" x1="734.8" y1="246.86" x2="767.57" y2="556.09"/><line class="cls-71" x1="660.61" y1="260.06" x2="736.2" y2="260.06"/><line class="cls-71" x1="663.28" y1="285.2" x2="738.86" y2="285.2"/><line class="cls-71" x1="665.94" y1="310.34" x2="741.53" y2="310.34"/><line class="cls-71" x1="668.61" y1="335.47" x2="744.19" y2="335.47"/><line class="cls-71" x1="671.27" y1="360.61" x2="746.86" y2="360.61"/><line class="cls-71" x1="673.93" y1="385.75" x2="749.52" y2="385.75"/><line class="cls-71" x1="676.6" y1="410.89" x2="752.19" y2="410.89"/><line class="cls-71" x1="679.26" y1="436.03" x2="754.85" y2="436.03"/><line class="cls-71" x1="681.93" y1="461.17" x2="757.51" y2="461.17"/><line class="cls-71" x1="684.59" y1="486.31" x2="760.18" y2="486.31"/><line class="cls-71" x1="687.25" y1="511.45" x2="762.84" y2="511.45"/><line class="cls-71" x1="689.92" y1="536.59" x2="765.51" y2="536.59"/><path class="cls-37" d="M748,201.92l-.53,22.13s-11,7.1-18.57-3.49l2.52-10.75Z"/><path class="cls-37" d="M734.23,188.3s-11.12,13.65-7.51,19.8c1.89,3.19,5.28,5,9.1,3.28,2.83-1.29,14.58-10.23,13.76-12.61C746.44,189.69,734.23,188.3,734.23,188.3Z"/><path class="cls-37" d="M729.23,196.28s-3.47,2.18-3.89,4.05c-.18.83,2.62,1.59,2.62,1.59"/><path class="cls-19" d="M727.75,203.53l5.15.38C732.72,205.86,728,209.75,727.75,203.53Z"/><path class="cls-50" d="M732.42,196.81v0l0-.07s-.05.09-.07.14l-.08.21,0-.08a1.92,1.92,0,0,1-.27.46l.06-.07a1.34,1.34,0,0,0-.11.14.35.35,0,0,1,0,.08.43.43,0,0,0-.06.29.33.33,0,0,0,.23.23.36.36,0,0,0,.25,0l.09-.07.08-.07a1.18,1.18,0,0,0,.17-.22,3.36,3.36,0,0,0,.2-.43l.06-.19a1.23,1.23,0,0,0,0-.27.28.28,0,0,0-.25-.29.27.27,0,0,0-.19,0,.31.31,0,0,0-.13.17Z"/><path class="cls-55" d="M735.67,196.48a3.28,3.28,0,0,0-2.06-1.94,1.74,1.74,0,0,0-1.23,0"/><path class="cls-42" d="M754,192.16a13.1,13.1,0,0,1-1.82-1.66c-1.24-1.61-1-4-2.41-5.46s-3.59-1.29-5.37-2.07c-1.08-.47-2-1.26-3-1.81a18.67,18.67,0,0,0-5.64-1.84,6.54,6.54,0,0,0-5.26,1.75c-1.07,1.1-1.64,2.86-.75,4.13.72,1.05,2.24,1.52,2.71,2.69.4,1-.1,2.1.18,3.11.54,1.92,3.33,2.35,4.48,4s.31,3.91,1,5.78c.51,1.33,1.79,2.33,2.2,3.69.27.89.14,1.84.41,2.72.83,2.77,4.44,4.51,7.2,4.51,1.37,0,1.68-.62,2.41-1.71a36.64,36.64,0,0,0,4.2-7.79c1-2.65,2.13-7.26-.14-9.66A5,5,0,0,0,754,192.16Z"/><path class="cls-37" d="M737.62,201.65c1.14-2.78,3.59-1,4.14.2.73,1.58-1.53,4.37-2.46,4.77-1.89.82-3.3.52-3.24-.92"/><path class="cls-52" d="M731.09,212a19.58,19.58,0,0,0,6.29-1.55"/><path class="cls-72" d="M768.65,423.86l9.1,37.66,2.35,11.41-41.72,7.36a2,2,0,0,1-2.2-1.66h0a2,2,0,0,1,.86-2.07l16.37-12.18-11-38.83"/><path class="cls-73" d="M734.63,480.47c.17-1.51.66-3.27,1.38-3.78l17.47-12.32c11.33,2.67,24.3-3.31,24.3-3.31l5.22,15a.92.92,0,0,1-.7,1.08l-46.45,8.19C734.91,485.53,734.63,480.52,734.63,480.47Z"/><path class="cls-74" d="M749.51,466a25.21,25.21,0,0,1,3.57,4.38"/><path class="cls-74" d="M747.39,468a22.54,22.54,0,0,1,3,3.73"/><path class="cls-74" d="M745.57,469.49a32.53,32.53,0,0,1,2.75,3.41"/><line class="cls-74" x1="782.31" y1="473.71" x2="734.73" y2="482.11"/><path class="cls-74" d="M779.63,466.39s-11.13,2.28-10.78,9.71"/><path class="cls-74" d="M739.59,474.16s3.93,4.16,4.93,6.22"/><path class="cls-73" d="M729.07,313.57s2.21,43.65,5.12,76.34a370.63,370.63,0,0,0,12.89,68.77L778.73,454s-10.43-49-11.56-64.15c-1.61-21.52-.41-52.39-.41-52.39a39.2,39.2,0,0,0,.55-28.34"/><path class="cls-75" d="M734.46,313.1s0,51.43,5.09,84.85c4.42,29.26,12,60.08,12,60.08"/><line class="cls-75" x1="745.53" y1="453.22" x2="776.73" y2="447.36"/><path class="cls-37" d="M733.3,431l2.26,38.68.29,11.64-42.36-.23a2,2,0,0,1-1.87-2h0a2.05,2.05,0,0,1,1.21-1.88l18.27-9.05-3.93-40.18"/><path class="cls-45" d="M689.77,480.58c.43-1.46,1.23-3.11,2-3.48l19.37-9c10.68,4.66,24.5,1.1,24.5,1.1l2.47,15.72a.92.92,0,0,1-.88.94l-47.16-.26C689.15,485.6,689.76,480.63,689.77,480.58Z"/><path class="cls-76" d="M707,469a25.51,25.51,0,0,1,2.73,4.94"/><path class="cls-76" d="M704.54,470.58a22.49,22.49,0,0,1,2.24,4.2"/><path class="cls-76" d="M702.48,471.73a31.05,31.05,0,0,1,2.1,3.85"/><line class="cls-76" x1="737.89" y1="482.47" x2="689.57" y2="482.21"/><path class="cls-76" d="M736.54,474.78s-11.35.25-12.32,7.62"/><path class="cls-76" d="M695.77,475.26s3.13,4.79,3.75,7"/><path class="cls-45" d="M706.16,313.55s-3.12,47.25-1.88,80,3,66.36,3,66.36h32.33s-.93-53.34-.18-73.52,4-47.33,4-47.33,7.14-8.67,3-28.19"/><path class="cls-77" d="M711.57,313.55s-3.24,47.25-2,80S712.75,460,712.75,460"/><path class="cls-77" d="M722.48,322.91s9.46.34,14.06,0"/><path class="cls-75" d="M753.16,323.34s8.33-.18,12.35-.77"/><line class="cls-77" x1="706.98" y1="453.51" x2="739.54" y2="453.51"/><path class="cls-78" d="M782.51,274.15c-3-24-9.53-35.76-15.85-43.31a32.86,32.86,0,0,0-18.79-11.34l-1.42,30.05s12.39,25.29,12.33,28.64c-.14,7.94-10.12,35.4-10.12,35.4L770,311.65S784.18,287.3,782.51,274.15Z"/><path class="cls-37" d="M657,206.73c-5.36-4.07-19-18.39-20.22-17.83s3.46,5.67,2.34,5.93-8.91-7.08-10-6.19C627.61,189.86,636,197,636,197s-2.13-.86-3.13.57c-.7,1,1.32,3.08,1.32,3.08s-2.36-.89-3.08.18,1.56,3.5,1.56,3.5-1.91-.95-2.35.15c-.73,1.8,4.9,7.49,15.43,17.32"/><path class="cls-79" d="M747.87,219.5s16.74,6.32,20.75,29c1.78,10.09,1.31,67,1.31,67-31.07,5.49-64.3-1.15-64.3-1.15s1.32-43.84,1-57.23c-.72-32,24.83-37,24.83-37Z"/><path class="cls-80" d="M770,311.65a192.6,192.6,0,0,1-64.28-1.37"/><path class="cls-79" d="M746.45,219.56s-19.71-.8-34.52,1.25c-15.32,2.11-26.42,3.27-32.3,1.22s-28.15-22.5-28.15-22.5L635.6,215.27s23.95,31.45,45.29,34.08,44.69-2.93,44.69-2.93"/><line class="cls-80" x1="707.01" y1="249.46" x2="722.24" y2="247.08"/></g></g></g></svg>